<?xml version="1.0" encoding="UTF-8" standalone="no"?>
<!DOCTYPE svg PUBLIC "-//W3C//DTD SVG 1.1//EN" "http://www.w3.org/Graphics/SVG/1.1/DTD/svg11.dtd">
<svg width="100%" height="100%" viewBox="0 0 650 450" version="1.1" xmlns="http://www.w3.org/2000/svg" xmlns:xlink="http://www.w3.org/1999/xlink" xml:space="preserve" xmlns:serif="http://www.serif.com/" style="fill-rule:evenodd;clip-rule:evenodd;stroke-linecap:round;stroke-linejoin:round;stroke-miterlimit:1.5;">
    <g transform="matrix(1.02746,0,0,0.97156,-375.588,-261.534)">
        <path d="M794.013,541.046C815.202,513.373 825.97,478.74 825.97,443.132C825.97,357.353 760.118,283.746 679.007,283.746C597.895,283.746 531.447,353.472 531.447,439.25C531.447,472.999 535.679,500.998 554.885,527.951L575.66,470.447C575.66,470.447 573.869,450.552 573.869,439.46C573.869,378.557 621.544,328.818 679.134,328.818C736.723,328.818 784.31,383.043 783.301,439.617C782.385,491.014 773.129,493.553 771.018,498.018L794.013,541.046Z" style="fill:white;"/>
    </g>
    <g transform="matrix(1,0,0,1,-219.721,-136.957)">
        <path d="M229.064,521.401C278.102,518.954 319.126,508.849 350.67,488.322C382.201,467.805 409.266,425.952 418.904,398.432C427.238,374.633 431.752,354.051 437.328,339.093C439.47,337.159 440.786,333.774 443.057,332.639C448.404,329.966 452.967,328.263 457.361,326.914C465.184,321.945 472.942,315.442 479.091,308.093C491.636,293.102 522.222,252.344 533.084,234.98C539.636,224.506 549.969,207.96 549.969,207.96L610.926,323.058C638.703,381.842 674.195,433.082 710.499,471.993C735.954,498.438 770.37,515.005 796.62,516.898C820.505,518.621 844.892,508.573 860.379,493.571C831.102,527.263 804.123,541.407 773.012,546.621C757.681,549.19 731.988,546.48 713.818,537.993C695.671,529.516 680.648,518.893 667.398,505.24C645.147,482.311 625.549,453.031 607.51,416.678C582.844,366.974 577.975,355.533 571.95,340.281C562.183,315.554 548.485,282.85 544.042,271.54C531.933,288.52 523.043,306.686 473.267,328.719C483.374,339.742 494.923,353.301 508.075,372.346C519.801,389.326 532.167,412.347 539.181,435.462C549.483,469.414 541.783,495.004 535.83,516.189C529.728,537.906 515.23,557.306 506.037,572.815C515.437,546.046 517.596,498.443 506.933,470.803C498.25,448.297 474.267,412.533 456.494,402.103C435.427,440.243 410.438,466.613 378.894,489.46C341.849,516.29 276.543,530.313 229.064,521.401Z" style="fill:url(#_Linear1);stroke:white;stroke-width:1px;"/>
    </g>
    <defs>
        <linearGradient id="_Linear1" x1="0" y1="0" x2="1" y2="0" gradientUnits="userSpaceOnUse" gradientTransform="matrix(1.71108e-14,279.441,-161.497,9.88881e-15,544.721,268.121)"><stop offset="0" style="stop-color:white;stop-opacity:1"/><stop offset="0.45" style="stop-color:rgb(254,224,180);stop-opacity:1"/><stop offset="1" style="stop-color:rgb(253,151,0);stop-opacity:1"/></linearGradient>
    </defs>
</svg>
